<svg width="17" height="16" viewBox="0 0 17 16" fill="none" xmlns="http://www.w3.org/2000/svg">
<path d="M12.9727 0H4.47266C2.40159 0 0.722656 1.67893 0.722656 3.75V12.25C0.722656 14.3211 2.40159 16 4.47266 16H12.9727C15.0437 16 16.7227 14.3211 16.7227 12.25V3.75C16.7227 1.67893 15.0437 0 12.9727 0Z" fill="url(#paint0_radial_86_6058)"/>
<path d="M12.9727 0H4.47266C2.40159 0 0.722656 1.67893 0.722656 3.75V12.25C0.722656 14.3211 2.40159 16 4.47266 16H12.9727C15.0437 16 16.7227 14.3211 16.7227 12.25V3.75C16.7227 1.67893 15.0437 0 12.9727 0Z" fill="url(#paint1_radial_86_6058)"/>
<path d="M8.72322 1.75C7.02584 1.75 6.81278 1.75744 6.14616 1.78775C5.48078 1.81825 5.02659 1.92356 4.62922 2.07812C4.21809 2.23775 3.86941 2.45131 3.52203 2.79881C3.17434 3.14625 2.96078 3.49494 2.80066 3.90587C2.64566 4.30338 2.54022 4.75775 2.51028 5.42281C2.48047 6.0895 2.47266 6.30263 2.47266 8.00006C2.47266 9.6975 2.48016 9.90987 2.51041 10.5765C2.54103 11.2419 2.64634 11.6961 2.80078 12.0934C2.96053 12.5046 3.17409 12.8533 3.52159 13.2006C3.86891 13.5483 4.21759 13.7624 4.62841 13.922C5.02609 14.0766 5.48034 14.1819 6.14559 14.2124C6.81228 14.2427 7.02516 14.2501 8.72247 14.2501C10.42 14.2501 10.6324 14.2427 11.299 14.2124C11.9644 14.1819 12.4191 14.0766 12.8168 13.922C13.2277 13.7624 13.5759 13.5483 13.9232 13.2006C14.2708 12.8533 14.4843 12.5046 14.6445 12.0936C14.7982 11.6961 14.9037 11.2417 14.9349 10.5766C14.9648 9.91 14.9727 9.6975 14.9727 8.00006C14.9727 6.30263 14.9648 6.08962 14.9349 5.42294C14.9037 4.75756 14.7982 4.30344 14.6445 3.90606C14.4843 3.49494 14.2708 3.14625 13.9232 2.79881C13.5755 2.45119 13.2278 2.23762 12.8164 2.07819C12.418 1.92356 11.9635 1.81819 11.2982 1.78775C10.6315 1.75744 10.4192 1.75 8.72128 1.75H8.72322ZM8.16253 2.87631C8.32897 2.87606 8.51466 2.87631 8.72322 2.87631C10.392 2.87631 10.5898 2.88231 11.2488 2.91225C11.8582 2.94012 12.1889 3.04194 12.4092 3.1275C12.7009 3.24075 12.9088 3.37619 13.1275 3.595C13.3462 3.81375 13.4816 4.02206 13.5952 4.31375C13.6807 4.53375 13.7827 4.8645 13.8104 5.47388C13.8403 6.13275 13.8468 6.33062 13.8468 7.99862C13.8468 9.66663 13.8403 9.86456 13.8104 10.5234C13.7825 11.1327 13.6807 11.4635 13.5952 11.6836C13.4819 11.9753 13.3462 12.1829 13.1275 12.4016C12.9087 12.6203 12.701 12.7557 12.4092 12.869C12.1892 12.9549 11.8582 13.0565 11.2488 13.0844C10.5899 13.1143 10.392 13.1208 8.72322 13.1208C7.05434 13.1208 6.85653 13.1143 6.19772 13.0844C5.58834 13.0563 5.25759 12.9544 5.03709 12.8689C4.74547 12.7556 4.53709 12.6202 4.31834 12.4014C4.09959 12.1827 3.96422 11.9749 3.85066 11.6831C3.76509 11.463 3.66316 11.1322 3.63541 10.5229C3.60547 9.864 3.59947 9.66613 3.59947 7.99706C3.59947 6.328 3.60547 6.13119 3.63541 5.47231C3.66328 4.86294 3.76509 4.53219 3.85066 4.31187C3.96397 4.02019 4.09959 3.81188 4.31841 3.59313C4.53722 3.37438 4.74547 3.23894 5.03716 3.12544C5.25747 3.0395 5.58834 2.93794 6.19772 2.90994C6.77428 2.88387 6.99772 2.87606 8.16253 2.87475V2.87631ZM12.0595 3.91406C11.6454 3.91406 11.3095 4.24969 11.3095 4.66381C11.3095 5.07788 11.6454 5.41381 12.0595 5.41381C12.4735 5.41381 12.8095 5.07788 12.8095 4.66381C12.8095 4.24975 12.4735 3.91381 12.0595 3.91381V3.91406ZM8.72322 4.79038C6.95072 4.79038 5.51359 6.2275 5.51359 8.00006C5.51359 9.77262 6.95072 11.2091 8.72322 11.2091C10.4958 11.2091 11.9324 9.77262 11.9324 8.00006C11.9324 6.22756 10.4957 4.79038 8.72309 4.79038H8.72322ZM8.72322 5.91669C9.87378 5.91669 10.8066 6.84938 10.8066 8.00006C10.8066 9.15063 9.87378 10.0834 8.72322 10.0834C7.57266 10.0834 6.63991 9.15063 6.63991 8.00006C6.63991 6.84938 7.57259 5.91669 8.72322 5.91669Z" fill="white"/>
<defs>
<radialGradient id="paint0_radial_86_6058" cx="0" cy="0" r="1" gradientUnits="userSpaceOnUse" gradientTransform="translate(4.97266 17.2323) rotate(-90) scale(15.8572 14.7484)">
<stop stop-color="#FFDD55"/>
<stop offset="0.1" stop-color="#FFDD55"/>
<stop offset="0.5" stop-color="#FF543E"/>
<stop offset="1" stop-color="#C837AB"/>
</radialGradient>
<radialGradient id="paint1_radial_86_6058" cx="0" cy="0" r="1" gradientUnits="userSpaceOnUse" gradientTransform="translate(-1.95741 1.15256) rotate(78.681) scale(7.08825 29.218)">
<stop stop-color="#3771C8"/>
<stop offset="0.128" stop-color="#3771C8"/>
<stop offset="1" stop-color="#6600FF" stop-opacity="0"/>
</radialGradient>
</defs>
</svg>
