<svg width="24" height="16" viewBox="0 0 24 16" fill="none" xmlns="http://www.w3.org/2000/svg">
<path d="M23.2187 2.50551C23.0877 2.02123 22.832 1.57974 22.4773 1.22498C22.1226 0.870223 21.6811 0.614585 21.1968 0.483521C19.4239 0 12.2885 0 12.2885 0C12.2885 0 5.1528 0.0146359 3.37989 0.498157C2.89561 0.629228 2.45412 0.88488 2.09938 1.23965C1.74463 1.59443 1.48902 2.03594 1.35799 2.52023C0.821729 5.67035 0.613702 10.4704 1.37272 13.4945C1.50376 13.9788 1.75938 14.4203 2.11412 14.775C2.46886 15.1298 2.91035 15.3854 3.39462 15.5165C5.16752 16 12.3031 16 12.3031 16C12.3031 16 19.4385 16 21.2113 15.5165C21.6956 15.3854 22.1371 15.1298 22.4919 14.775C22.8466 14.4203 23.1023 13.9788 23.2333 13.4945C23.799 10.3399 23.9732 5.54282 23.2187 2.50551Z" fill="#FF0000"/>
<path d="M10.0176 11.4274L15.9369 7.99886L10.0176 4.57031V11.4274Z" fill="white"/>
</svg>
