<svg width="7" height="7" viewBox="0 0 7 7" fill="none" xmlns="http://www.w3.org/2000/svg">
<path fill-rule="evenodd" clip-rule="evenodd" d="M3.13782 0.150019C3.33785 -0.0500061 3.66215 -0.0500061 3.86218 0.150018L6.84998 3.13782C6.94604 3.23388 7 3.36416 7 3.5C7 3.63584 6.94604 3.76612 6.84998 3.86218L3.86218 6.84998C3.66215 7.05001 3.33785 7.05001 3.13782 6.84998C2.9378 6.64996 2.9378 6.32565 3.13782 6.12563L5.25126 4.01219H0.512195C0.229318 4.01219 0 3.78288 0 3.5C0 3.21712 0.229318 2.9878 0.512195 2.9878H5.25126L3.13782 0.874372C2.9378 0.674347 2.9378 0.350043 3.13782 0.150019Z" fill="black"/>
</svg>
