<svg width="93" height="94" viewBox="0 0 93 94" fill="none" xmlns="http://www.w3.org/2000/svg">
<path d="M65.875 54.7578C69.1688 54.7578 74.7875 51.0766 77.5 47.2016C80.2125 43.1328 81.7625 38.2891 81.375 33.4453C80.9875 27.6328 79.825 25.6953 81.375 19.8828C81.9563 17.9453 83.8938 15.4266 85.25 14.0703C76.1438 15.0391 69.3625 19.4953 67.8125 25.6953C64.7125 31.1203 56.575 53.0141 52.3125 54.7578C56.9625 54.7578 62.3875 54.7578 65.875 54.7578ZM29.0625 53.7891C25.7687 53.7891 20.15 50.1078 17.4375 46.2328C14.725 42.1641 13.3688 37.3203 13.5625 32.4766C13.95 26.6641 15.1125 24.7266 13.5625 18.9141C12.9813 16.9766 11.0437 14.4578 9.6875 13.1016C18.7937 14.0703 25.575 18.5266 27.125 24.7266C30.225 30.1516 38.3625 52.0453 42.625 53.7891C37.975 53.7891 32.55 53.7891 29.0625 53.7891Z" fill="#FF6E00"/>
<path d="M52.3125 54.7578C55.9938 54.3703 63.3563 51.8516 65.875 48.9453C68.3937 46.0391 69.75 43.3266 69.75 39.2578C69.75 34.6078 68.7812 30.1516 68.0062 27.6328C66.8437 22.7891 65.875 21.4328 65.875 19.8828C65.875 18.7203 66.2625 16.5891 66.4562 15.6203C66.65 14.8453 67.425 12.9078 67.8125 12.1328C60.0625 12.1328 54.8312 21.2391 53.2812 23.7578C55.9938 34.4141 54.4438 44.1016 52.3125 54.7578ZM40.6875 54.7578C37.0063 54.3703 29.6437 51.8516 27.125 48.9453C24.6063 46.0391 23.25 43.3266 23.25 39.2578C23.25 34.6078 24.2187 30.1516 24.9937 27.6328C26.1562 22.7891 27.125 21.4328 27.125 19.8828C27.125 18.7203 26.7375 16.5891 26.5437 15.6203C26.35 14.8453 25.575 12.9078 25.1875 12.1328C32.9375 12.1328 38.1687 21.2391 39.7188 23.7578C37.0063 34.4141 38.5562 44.1016 40.6875 54.7578Z" fill="#EA5000"/>
<path d="M46.5 55.7266C56.3813 55.7266 58.3188 45.6516 58.3188 41.7766C58.3188 31.8953 50.1813 17.1703 46.5 12.1328C42.4313 17.7516 34.6813 32.0891 34.6813 41.7766C34.6813 45.8453 36.6188 55.7266 46.5 55.7266Z" fill="#FF6E00"/>
<path d="M21.3125 56.6954C23.25 57.6641 29.0625 64.4454 36.8125 60.5704C36.8125 58.8266 36.8125 54.9516 36.8125 52.8204C34.875 52.4329 26.9312 51.0766 23.6375 51.6579C20.925 52.2391 18.7937 53.5954 17.4375 56.6954C18.4062 56.3079 20.15 56.1141 21.3125 56.6954ZM71.6875 56.8891C69.75 57.8579 63.9375 64.6391 56.1875 60.7641C56.1875 59.0204 56.1875 55.1454 56.1875 53.0141C58.125 52.6266 64.1312 51.2704 67.425 51.8516C70.525 52.4329 74.2062 53.5954 75.5625 56.6954C74.5938 56.3079 73.0438 56.3079 71.6875 56.8891ZM44.5625 83.8204C44.175 83.8204 43.9813 83.8204 43.5938 83.6266C42.625 83.0454 42.2375 81.8829 42.8188 80.9141C43.9813 78.7829 44.95 68.9016 44.5625 62.7016C44.5625 61.5391 45.3375 60.7641 46.3062 60.5704C47.275 60.5704 48.2437 61.3454 48.4375 62.3141C49.0187 68.5141 48.05 79.5579 46.3062 82.8516C45.9187 83.4329 45.3375 83.8204 44.5625 83.8204Z" fill="#2D9037"/>
<path d="M56.1875 83.8203H34.875C33.7125 83.8203 32.9375 83.0453 32.9375 81.8828C32.9375 80.7203 33.7125 79.9453 34.875 79.9453H56.1875C57.35 79.9453 58.125 80.7203 58.125 81.8828C58.125 83.0453 57.35 83.8203 56.1875 83.8203Z" fill="#2D9037"/>
<path d="M46.5 70.2578C47.6625 70.2578 47.8563 69.4828 48.4375 68.3203C49.6 65.8016 54.6375 63.2828 56.1875 60.5703C58.5125 58.2453 57.9313 55.5328 56.1875 52.8203C56.1875 52.8203 48.825 54.7578 46.5 54.7578C43.4 54.7578 36.8125 52.8203 36.8125 52.8203C34.2938 55.3391 34.2938 58.0516 36.8125 60.5703C39.7188 62.3141 42.2375 65.0266 44.5625 68.3203C44.95 68.7078 45.3375 70.2578 46.5 70.2578Z" fill="#77B539"/>
</svg>
