<svg width="24" height="24" viewBox="0 0 24 24" fill="none" xmlns="http://www.w3.org/2000/svg">
<rect width="24" height="24" rx="2" fill="white" fill-opacity="0.12"/>
<path d="M11.9998 14.3327C12.6187 14.3327 13.2122 14.0869 13.6498 13.6493C14.0873 13.2117 14.3332 12.6182 14.3332 11.9993C14.3332 11.3805 14.0873 10.787 13.6498 10.3494C13.2122 9.91185 12.6187 9.66602 11.9998 9.66602C11.381 9.66602 10.7875 9.91185 10.3499 10.3494C9.91234 10.787 9.6665 11.3805 9.6665 11.9993C9.6665 12.6182 9.91234 13.2117 10.3499 13.6493C10.7875 14.0869 11.381 14.3327 11.9998 14.3327Z" stroke="white" stroke-linecap="round" stroke-linejoin="round"/>
<path d="M6.75 14.3333V9.66667C6.75 8.89312 7.05729 8.15125 7.60427 7.60427C8.15125 7.05729 8.89312 6.75 9.66667 6.75H14.3333C15.1069 6.75 15.8487 7.05729 16.3957 7.60427C16.9427 8.15125 17.25 8.89312 17.25 9.66667V14.3333C17.25 15.1069 16.9427 15.8487 16.3957 16.3957C15.8487 16.9427 15.1069 17.25 14.3333 17.25H9.66667C8.89312 17.25 8.15125 16.9427 7.60427 16.3957C7.05729 15.8487 6.75 15.1069 6.75 14.3333Z" stroke="white"/>
<path d="M15.2085 8.79743L15.2143 8.79102" stroke="white" stroke-linecap="round" stroke-linejoin="round"/>
</svg>
