<svg width="24" height="24" viewBox="0 0 24 24" fill="none" xmlns="http://www.w3.org/2000/svg">
<rect width="24" height="24" rx="2" fill="white" fill-opacity="0.12"/>
<path d="M8.81349 7.33393C8.81331 7.68753 8.67268 8.02658 8.42252 8.27649C8.17236 8.5264 7.83317 8.6667 7.47957 8.66652C7.12596 8.66634 6.78691 8.5257 6.537 8.27554C6.28709 8.02539 6.1468 7.6862 6.14697 7.33259C6.14715 6.97899 6.28779 6.63994 6.53795 6.39003C6.78811 6.14012 7.1273 5.99982 7.4809 6C7.8345 6.00018 8.17355 6.14081 8.42346 6.39097C8.67337 6.64113 8.81367 6.98032 8.81349 7.33393ZM8.85349 9.6538H6.18697V18H8.85349V9.6538ZM13.0666 9.6538H10.4134V18H13.0399V13.6202C13.0399 11.1804 16.2197 10.9537 16.2197 13.6202V18H18.8529V12.7136C18.8529 8.60052 14.1465 8.75385 13.0399 10.7737L13.0666 9.6538Z" fill="white"/>
</svg>
