<svg width="17" height="14" viewBox="0 0 17 14" fill="none" xmlns="http://www.w3.org/2000/svg">
<path d="M1.52622 14C1.09115 14 0.728167 13.846 0.437278 13.538C0.146389 13.23 0.00062963 12.8453 0 12.384V1.616C0 1.15533 0.145759 0.771 0.437278 0.463C0.728796 0.155 1.09146 0.000666667 1.52528 0H15.4747C15.9092 0 16.2718 0.154333 16.5627 0.463C16.8536 0.771666 16.9994 1.156 17 1.616V12.385C17 12.845 16.8542 13.2293 16.5627 13.538C16.2712 13.8467 15.9085 14.0007 15.4747 14H1.52622ZM16.0556 1.885L8.92311 6.829C8.85637 6.86567 8.789 6.89667 8.721 6.922C8.65237 6.94667 8.5787 6.959 8.5 6.959C8.4213 6.959 8.34763 6.94667 8.279 6.922C8.21037 6.89733 8.143 6.86633 8.07689 6.829L0.944444 1.884V12.384C0.944444 12.564 0.998907 12.7117 1.10783 12.827C1.21676 12.9423 1.35622 13 1.52622 13H15.4747C15.6441 13 15.7832 12.9423 15.8922 12.827C16.0011 12.7117 16.0556 12.564 16.0556 12.384V1.885ZM8.5 6L15.7647 1H1.23533L8.5 6ZM0.944444 2.096V1.285V1.319V1V1.32V1.268V2.096Z" fill="white"/>
</svg>
