<svg width="14" height="14" viewBox="0 0 14 14" fill="none" xmlns="http://www.w3.org/2000/svg">
<path d="M8.58583 0.888768C8.60034 0.834343 8.62543 0.783313 8.65968 0.738594C8.69392 0.693875 8.73665 0.656345 8.78541 0.62815C8.83417 0.599955 8.88801 0.581648 8.94385 0.574276C8.99969 0.566903 9.05643 0.57061 9.11084 0.585185C10.146 0.85521 11.0904 1.39633 11.8469 2.1528C12.6033 2.90928 13.1444 3.85375 13.4145 4.88892C13.429 4.94333 13.4327 5.00008 13.4254 5.05592C13.418 5.11176 13.3997 5.1656 13.3715 5.21436C13.3433 5.26312 13.3058 5.30585 13.2611 5.34009C13.2163 5.37434 13.1653 5.39943 13.1109 5.41394C13.0748 5.42351 13.0375 5.42832 13.0002 5.42823C12.9057 5.42829 12.8139 5.39716 12.739 5.33968C12.6641 5.2822 12.6103 5.20158 12.5859 5.11036C12.3541 4.22118 11.8893 3.40989 11.2396 2.76012C10.5898 2.11036 9.77857 1.64561 8.88941 1.41379C8.83498 1.39928 8.78395 1.37418 8.73923 1.33994C8.69452 1.30569 8.65699 1.26297 8.62879 1.2142C8.6006 1.16544 8.58229 1.1116 8.57492 1.05576C8.56755 0.999922 8.57126 0.943175 8.58583 0.888768ZM8.31797 3.69959C9.35727 3.97675 10.023 4.64249 10.3001 5.68181C10.3245 5.77304 10.3784 5.85365 10.4533 5.91113C10.5282 5.96861 10.62 5.99974 10.7144 5.99968C10.7518 5.99977 10.789 5.99496 10.8251 5.9854C10.8796 5.97089 10.9306 5.94579 10.9753 5.91154C11.02 5.8773 11.0576 5.83457 11.0858 5.78581C11.1139 5.73705 11.1323 5.68321 11.1396 5.62737C11.147 5.57153 11.1433 5.51478 11.1287 5.46037C10.7716 4.12389 9.87585 3.22814 8.5394 2.87099C8.485 2.85645 8.42826 2.85277 8.37243 2.86015C8.3166 2.86754 8.26278 2.88585 8.21403 2.91404C8.16527 2.94223 8.12255 2.97975 8.0883 3.02445C8.05405 3.06915 8.02893 3.12016 8.01439 3.17457C7.99985 3.22898 7.99617 3.28572 8.00356 3.34155C8.01095 3.39738 8.02926 3.4512 8.05745 3.49996C8.08564 3.54871 8.12315 3.59143 8.16785 3.62568C8.21255 3.65994 8.26356 3.68505 8.31797 3.69959ZM13.9923 10.6284C13.8699 11.5622 13.4117 12.4195 12.7033 13.04C11.9949 13.6605 11.0847 14.0017 10.143 14C4.55007 14 7.12309e-06 9.44982 7.12309e-06 3.85674C-0.00179701 2.91531 0.339168 2.00541 0.959213 1.29701C1.57926 0.588614 2.43597 0.130167 3.36934 0.00730488C3.58419 -0.0188064 3.80172 0.0254978 3.98926 0.133563C4.17679 0.241629 4.3242 0.407623 4.40935 0.606614L5.91651 3.97103C5.98306 4.12334 6.01059 4.28984 5.99662 4.45547C5.98266 4.62109 5.92763 4.78063 5.83651 4.91964C5.82732 4.93379 5.8173 4.94739 5.80651 4.96036L4.30149 6.75042C4.29235 6.76898 4.2876 6.78939 4.2876 6.81007C4.2876 6.83075 4.29235 6.85116 4.30149 6.86972C4.84864 7.98976 6.02294 9.15552 7.15867 9.70197C7.17763 9.71062 7.19835 9.71473 7.21918 9.71399C7.24 9.71324 7.26037 9.70766 7.27867 9.69768L9.04226 8.19763C9.05488 8.1867 9.06825 8.17668 9.08226 8.16762C9.22066 8.07535 9.37988 8.01906 9.54552 8.00384C9.71115 7.98863 9.87796 8.01497 10.0308 8.08048L13.4052 9.59268C13.6015 9.6797 13.7646 9.82761 13.8704 10.0145C13.9761 10.2015 14.0189 10.4175 13.9923 10.6306V10.6284ZM13.143 10.5227C13.1454 10.4928 13.1384 10.463 13.1229 10.4373C13.1073 10.4117 13.0842 10.3916 13.0566 10.3799L9.68156 8.86765C9.66312 8.86054 9.64336 8.85749 9.62363 8.85872C9.60391 8.85996 9.58468 8.86544 9.56727 8.87479L7.80439 10.3749C7.79153 10.3856 7.77796 10.3956 7.76439 10.4049C7.62059 10.5007 7.4544 10.5577 7.28202 10.5702C7.10963 10.5828 6.93695 10.5504 6.78081 10.4763C5.46936 9.84269 4.1622 8.54764 3.52862 7.2483C3.4541 7.09306 3.42093 6.92121 3.43232 6.74939C3.44371 6.57757 3.49927 6.4116 3.59362 6.26755C3.60288 6.25326 3.61314 6.23966 3.62434 6.22683L5.12793 4.43462C5.13653 4.41591 5.14098 4.39557 5.14098 4.37498C5.14098 4.35439 5.13653 4.33404 5.12793 4.31533L3.62434 0.950199C3.61441 0.923174 3.59655 0.899779 3.5731 0.883081C3.54964 0.866383 3.52169 0.857161 3.49291 0.856624H3.47648C2.75 0.953264 2.08353 1.31103 1.60152 1.86311C1.11952 2.41519 0.854926 3.12385 0.857161 3.85674C0.857161 8.97694 5.02293 13.1428 10.143 13.1428C10.876 13.145 11.5847 12.8803 12.1368 12.3982C12.6889 11.916 13.0466 11.2493 13.143 10.5227Z" fill="white"/>
</svg>
