<svg width="24" height="24" viewBox="0 0 24 24" fill="none" xmlns="http://www.w3.org/2000/svg">
<rect width="24" height="24" rx="2" fill="white" fill-opacity="0.12"/>
<path d="M10.2861 15.4375L11.0361 15.0039L15.4844 12.4326L16.2334 12L15.4844 11.5674L11.0361 8.99609L10.2861 8.5625V15.4375ZM4.48047 12.7021L4.47852 12.6846L4.42871 11.9805C4.42967 10.1288 4.56583 8.8086 4.78711 7.99316L4.78809 7.99414C4.95544 7.39168 5.32039 7.02672 5.92285 6.85938L5.92188 6.8584C6.17744 6.78772 6.62553 6.72743 7.31348 6.67969L8.08301 6.63672H8.08691C9.19244 6.57719 10.204 6.55176 11.1377 6.55176H11.1465L11.1562 6.55078L12.5156 6.5C14.2989 6.5002 15.7405 6.53431 16.8428 6.59766C17.9586 6.66178 18.6914 6.75372 19.0781 6.8584V6.85938C19.6051 7.00589 19.9505 7.30348 20.1406 7.7793L20.2129 7.99414C20.2867 8.26143 20.3468 8.61071 20.3936 9.05273L20.4355 9.52637L20.4365 9.53223C20.4954 10.2055 20.5205 10.7825 20.5205 11.2803V11.2979L20.5215 11.3154L20.5703 12.0068C20.57 13.8661 20.4339 15.1906 20.2119 16.0078C20.0653 16.5339 19.7681 16.8793 19.293 17.0693L19.0781 17.1406C18.8226 17.2113 18.375 17.2726 17.6875 17.3203L16.917 17.3633H16.9131C15.8077 17.4228 14.7969 17.4482 13.8633 17.4482H13.8535L13.8438 17.4492L12.4834 17.499C10.7006 17.4988 9.25927 17.4657 8.15723 17.4023C7.04105 17.3382 6.30843 17.2454 5.92188 17.1406H5.92285C5.39555 16.9942 5.04957 16.6967 4.85938 16.2207L4.78809 16.0059C4.71421 15.7385 4.65322 15.3894 4.60645 14.9473L4.56445 14.4736L4.56348 14.4678L4.52637 13.9805C4.49452 13.5109 4.48047 13.093 4.48047 12.7197V12.7021Z" stroke="white"/>
</svg>
