<svg width="26" height="26" viewBox="0 0 26 26" fill="none" xmlns="http://www.w3.org/2000/svg">
<path d="M20.4857 11.9597C20.4853 10.2192 19.7914 8.55001 18.5565 7.31926C17.3216 6.08851 15.6468 5.39694 13.9003 5.39659M25 11.5004C25 10.1214 24.7274 8.75586 24.1979 7.4818C23.6683 6.20774 22.8921 5.05013 21.9136 4.07505C20.9351 3.09998 19.7735 2.32655 18.495 1.79893C17.2166 1.27131 15.8464 0.99983 14.4627 1M13.6908 23.6602C13.3002 23.4824 12.911 23.3047 12.5218 23.0932C10.6126 22.0183 8.8588 20.6898 7.30847 19.1442C5.29953 17.2587 3.64892 15.0269 2.43617 12.5565C1.78741 11.2295 1.34916 9.81019 1.13707 8.34928C0.850925 6.87312 1.01505 5.34538 1.60829 3.96306C1.97427 3.36887 2.41621 2.82463 2.92301 2.34402C3.12867 2.1147 3.37869 1.92915 3.65807 1.79852C3.93746 1.66788 4.24044 1.59484 4.54885 1.58379C5.19059 1.67979 5.77245 2.0145 6.17338 2.52175C7.05073 3.49344 7.99187 4.36782 8.91738 5.29021C9.28186 5.60157 9.50966 6.04265 9.55132 6.52007C9.5357 6.92223 9.38079 7.30494 9.11264 7.60462C8.80413 7.99381 8.43054 8.34928 8.07388 8.72031C7.8582 8.92734 7.6932 9.18104 7.59163 9.46178C7.49006 9.74253 7.45464 10.0428 7.48811 10.3394C7.712 11.0334 8.09601 11.6665 8.60888 12.1854C9.2242 13.0221 9.86895 13.8369 10.5419 14.6283C11.7971 16.0713 13.2839 17.2966 14.9417 18.2543C15.1712 18.427 15.4427 18.5361 15.7283 18.5702C16.0139 18.6044 16.3035 18.5625 16.5675 18.4489C17.1182 18.1414 17.6089 17.7353 18.0124 17.2514C18.3621 16.8276 18.8625 16.5548 19.4092 16.4899C19.896 16.5159 20.3542 16.7234 20.6926 17.0737C21.13 17.4447 21.5036 17.8819 21.9097 18.2867C22.3159 18.6915 22.6413 18.9834 22.9824 19.3544C23.3911 19.7142 23.7751 20.0973 24.1344 20.5038C24.4129 20.8632 24.547 21.3146 24.508 21.7661C24.3629 22.3067 24.0504 22.7879 23.615 23.1412C23.0018 23.7766 22.2569 24.271 21.4322 24.5898C20.6076 24.9087 19.723 25.0443 18.8403 24.9873C17.0531 24.8885 15.3019 24.4374 13.6908 23.6602Z" stroke="#F47216" stroke-width="2" stroke-miterlimit="10" stroke-linecap="round"/>
</svg>
