<svg width="45" height="45" viewBox="0 0 45 45" fill="none" xmlns="http://www.w3.org/2000/svg">
<path d="M45 22.5C45 23.0813 44.0024 23.6196 43.9582 24.1895C43.9133 24.7684 44.8151 25.4546 44.7262 26.02C44.6362 26.5929 43.5669 26.9691 43.4336 27.5264C43.2989 28.0898 44.0816 28.9091 43.9045 29.4547C43.7258 30.0051 42.6106 30.2082 42.3906 30.7386C42.1691 31.2726 42.8132 32.2051 42.5518 32.717C42.2891 33.2315 41.1559 33.2568 40.855 33.747C40.5529 34.2389 41.0428 35.2608 40.7041 35.7262C40.3647 36.1927 39.2414 36.0407 38.8673 36.4784C38.4926 36.9167 38.8174 38.0025 38.4099 38.41C38.0025 38.8174 36.9166 38.4926 36.4783 38.8673C36.0406 39.2416 36.1926 40.3647 35.7261 40.7042C35.2607 41.0429 34.2388 40.5529 33.7469 40.855C33.2567 41.156 33.2314 42.2892 32.7169 42.5519C32.205 42.8132 31.2725 42.1692 30.7385 42.3907C30.2081 42.6107 30.005 43.7258 29.4546 43.9045C28.909 44.0817 28.0897 43.2989 27.5264 43.4336C26.969 43.5669 26.5929 44.6362 26.02 44.7262C25.4546 44.8151 24.7685 43.9133 24.1896 43.9582C23.6196 44.0025 23.0813 45 22.5 45C21.9187 45 21.3804 44.0025 20.8104 43.9582C20.2315 43.9133 19.5454 44.8151 18.98 44.7262C18.4071 44.6362 18.0309 43.5669 17.4736 43.4336C16.9102 43.2989 16.0909 44.0816 15.5453 43.9045C14.9949 43.7258 14.7918 42.6106 14.2614 42.3906C13.7273 42.1691 12.7949 42.8132 12.283 42.5518C11.7685 42.2891 11.7431 41.1559 11.253 40.855C10.7611 40.5529 9.73919 41.0428 9.2738 40.7041C8.80733 40.3647 8.9593 39.2414 8.52155 38.8672C8.08331 38.4925 6.99747 38.8173 6.59001 38.4099C6.18255 38.0024 6.50736 36.9166 6.13268 36.4783C5.75843 36.0406 4.63526 36.1925 4.2958 35.7261C3.95712 35.2607 4.44705 34.2388 4.14497 33.7468C3.84398 33.2567 2.71082 33.2314 2.44813 32.7169C2.18683 32.205 2.8308 31.2725 2.60932 30.7385C2.38935 30.2081 1.27418 30.005 1.09548 29.4546C0.918351 28.909 1.70115 28.0897 1.56638 27.5263C1.43306 26.969 0.363769 26.5928 0.273782 26.02C0.184947 25.4546 1.08669 24.7684 1.04179 24.1895C0.997553 23.6196 0 23.0813 0 22.5C0 21.9187 0.997553 21.3804 1.04179 20.8104C1.08675 20.2315 0.184947 19.5454 0.273782 18.9799C0.36383 18.407 1.43306 18.0309 1.56638 17.4736C1.70115 16.9102 0.91835 16.0909 1.09554 15.5453C1.27424 14.9949 2.38941 14.7918 2.60938 14.2614C2.83086 13.7274 2.18683 12.7949 2.44819 12.283C2.71088 11.7685 3.84411 11.7432 4.14504 11.253C4.44712 10.7611 3.95719 9.7392 4.29587 9.27381C4.63533 8.80734 5.75856 8.95931 6.13281 8.52156C6.50748 8.08332 6.18268 6.99748 6.59014 6.59002C6.99759 6.18256 8.08343 6.50736 8.52167 6.13269C8.95943 5.75844 8.80745 4.63527 9.27392 4.2958C9.73925 3.95713 10.7612 4.44706 11.2531 4.14498C11.7433 3.84399 11.7686 2.71076 12.2831 2.44813C12.795 2.18684 13.7275 2.8308 14.2615 2.60932C14.7919 2.38935 14.995 1.27418 15.5454 1.09548C16.091 0.918353 16.9103 1.70109 17.4736 1.56638C18.031 1.43307 18.4071 0.363764 18.98 0.273777C19.5454 0.184942 20.2315 1.08669 20.8104 1.04179C21.3804 0.997552 21.9187 0 22.5 0C23.0813 0 23.6196 0.997552 24.1896 1.04179C24.7684 1.08675 25.4546 0.184942 26.02 0.273777C26.5929 0.363825 26.9691 1.43307 27.5264 1.56638C28.0898 1.70115 28.9091 0.918351 29.4547 1.09554C30.0051 1.27424 30.2082 2.38941 30.7386 2.60938C31.2727 2.83086 32.2051 2.18684 32.717 2.44819C33.2315 2.71088 33.2569 3.84411 33.747 4.14504C34.2389 4.44712 35.2608 3.95719 35.7262 4.29587C36.1927 4.63533 36.0407 5.75856 36.4785 6.13281C36.9167 6.50749 38.0025 6.18268 38.41 6.59014C38.8174 6.9976 38.4926 8.08344 38.8673 8.52174C39.2416 8.9595 40.3647 8.80752 40.7042 9.274C41.0429 9.73939 40.553 10.7613 40.855 11.2532C41.156 11.7433 42.2892 11.7687 42.5519 12.2832C42.8132 12.7951 42.1692 13.7275 42.3907 14.2616C42.6107 14.792 43.7258 14.9951 43.9045 15.5455C44.0816 16.0911 43.2989 16.9104 43.4336 17.4737C43.5669 18.031 44.6362 18.4072 44.7262 18.9801C44.8151 19.5455 43.9133 20.2316 43.9582 20.8105C44.0024 21.3804 45 21.9187 45 22.5Z" fill="#F47216"/>
</svg>
