<svg width="31" height="24" viewBox="0 0 31 24" fill="none" xmlns="http://www.w3.org/2000/svg">
<path d="M4.89474 0H26.1053C27.4034 0 28.6484 0.505713 29.5664 1.40589C30.4843 2.30606 31 3.52696 31 4.8V19.2C31 20.473 30.4843 21.6939 29.5664 22.5941C28.6484 23.4943 27.4034 24 26.1053 24H4.89474C3.59657 24 2.35158 23.4943 1.43364 22.5941C0.515694 21.6939 0 20.473 0 19.2V4.8C0 3.52696 0.515694 2.30606 1.43364 1.40589C2.35158 0.505713 3.59657 0 4.89474 0ZM4.89474 1.6C4.07895 1.6 3.36105 1.872 2.80632 2.352L15.5 10.4L28.1937 2.352C27.6389 1.872 26.9211 1.6 26.1053 1.6H4.89474ZM15.5 12.336L1.84368 3.648C1.71316 4 1.63158 4.4 1.63158 4.8V19.2C1.63158 20.0487 1.97537 20.8626 2.58734 21.4627C3.1993 22.0629 4.02929 22.4 4.89474 22.4H26.1053C26.9707 22.4 27.8007 22.0629 28.4127 21.4627C29.0246 20.8626 29.3684 20.0487 29.3684 19.2V4.8C29.3684 4.4 29.2868 4 29.1563 3.648L15.5 12.336Z" fill="#F47216"/>
</svg>
