<svg width="20" height="26" viewBox="0 0 20 26" fill="none" xmlns="http://www.w3.org/2000/svg">
<path fill-rule="evenodd" clip-rule="evenodd" d="M9.977 24.9985L10.9211 23.9347C11.9923 22.7089 12.9564 21.5424 13.8132 20.4352L14.5209 19.5016C17.4763 15.5208 18.954 12.3624 18.954 10.0264C18.954 5.04114 14.9353 1 9.977 1C5.0187 1 1 5.04114 1 10.0264C1 12.3624 2.47771 15.5213 5.43314 19.5031L6.14083 20.4367C7.36401 22.0036 8.64358 23.5242 9.977 24.9985Z" stroke="#F47216" stroke-linecap="round" stroke-linejoin="round"/>
<path d="M9.97625 13.7191C12.042 13.7191 13.7167 12.0445 13.7167 9.9787C13.7167 7.91292 12.042 6.23828 9.97625 6.23828C7.91048 6.23828 6.23584 7.91292 6.23584 9.9787C6.23584 12.0445 7.91048 13.7191 9.97625 13.7191Z" stroke="#F47216" stroke-linecap="round" stroke-linejoin="round"/>
</svg>
