<svg width="47" height="29" viewBox="0 0 47 29" fill="none" xmlns="http://www.w3.org/2000/svg">
<path d="M0.640484 6.73926C0.59425 6.88847 0.552872 7.03772 0.516457 7.18693C-1.99303 16.2857 4.87457 25.4039 16.0841 27.6912C16.9104 27.8598 17.7356 27.9878 18.5609 28.0717L15.354 17.1867C18.514 16.1668 21.0432 13.9672 21.9364 11.0847C23.4154 6.31166 19.8478 1.47159 13.9659 0.271385C12.735 0.0202088 11.4985 -0.0520427 10.3021 0.03826C5.78529 0.366002 1.81001 2.96505 0.640484 6.73926ZM35.0315 0.0382541C36.2278 -0.0520422 37.4644 0.0202029 38.6953 0.271379C44.5772 1.47158 48.1448 6.31165 46.6657 11.0847C45.7725 13.9672 43.2433 16.1668 40.0834 17.1867L43.2903 28.0717C42.4649 27.9878 41.6397 27.8598 40.8134 27.6912C29.6039 25.4039 22.7363 16.2857 25.2458 7.18692C25.2822 7.03771 25.3236 6.88847 25.3698 6.73925C26.5394 2.96504 30.5146 0.366003 35.0315 0.0382541Z" fill="#1B1F3B"/>
</svg>
