<svg width="47" height="30" viewBox="0 0 47 30" fill="none" xmlns="http://www.w3.org/2000/svg">
<path d="M46.3595 7.70117C46.4058 7.85039 46.4471 7.99963 46.4835 8.14885C48.993 17.2476 42.1254 26.3658 30.9159 28.6531C30.0896 28.8217 29.2644 28.9497 28.4391 29.0336L31.646 18.1486C28.486 17.1287 25.9568 14.9292 25.0636 12.0466C23.5846 7.27357 27.1522 2.4335 33.0341 1.2333C34.265 0.982123 35.5015 0.909871 36.6979 1.00017C41.2147 1.32792 45.19 3.92696 46.3595 7.70117ZM11.9685 1.00017C10.7722 0.909872 9.53563 0.982117 8.30472 1.23329C2.42283 2.43349 -1.14479 7.27356 0.334256 12.0466C1.22747 14.9291 3.75669 17.1287 6.91663 18.1486L3.70972 29.0336C4.53507 28.9497 5.36029 28.8217 6.18659 28.6531C17.3961 26.3658 24.2637 17.2476 21.7542 8.14884C21.7178 7.99962 21.6764 7.85038 21.6302 7.70117C20.4606 3.92696 16.4854 1.32792 11.9685 1.00017Z" fill="#1B1F3B"/>
</svg>
